<?xml version="1.0" encoding="utf-8"?>
<!-- Generator: Adobe Illustrator 25.0.0, SVG Export Plug-In . SVG Version: 6.00 Build 0)  -->
<svg version="1.1" id="Layer_1" xmlns="http://www.w3.org/2000/svg" xmlns:xlink="http://www.w3.org/1999/xlink" x="0px" y="0px"
	 viewBox="0 0 24 24" style="enable-background:new 0 0 24 24;" xml:space="preserve">
<path d="M12,0.5c-1.6,0-2.8,1.3-2.8,2.9v5.7H3.4c-1.6,0-2.9,1.2-2.9,2.8c0,1.6,1.2,2.9,2.8,2.9c0,0,0.1,0,0.1,0h5.7v5.7
	c0,1.6,1.2,2.9,2.8,2.9c1.6,0,2.9-1.2,2.9-2.8c0,0,0-0.1,0-0.1v-5.7h5.7c1.6,0,2.9-1.2,2.9-2.8c0-1.6-1.2-2.9-2.8-2.9
	c0,0-0.1,0-0.1,0h-5.7V3.4C14.9,1.8,13.6,0.5,12,0.5C12,0.5,12,0.5,12,0.5z"/>
</svg>
