<?xml version="1.0" encoding="utf-8"?>
<!-- Generator: Adobe Illustrator 25.0.0, SVG Export Plug-In . SVG Version: 6.00 Build 0)  -->
<svg version="1.1" id="Layer_1" xmlns="http://www.w3.org/2000/svg" xmlns:xlink="http://www.w3.org/1999/xlink" x="0px" y="0px"
	 viewBox="0 0 24 24" style="enable-background:new 0 0 24 24;" xml:space="preserve">
<path d="M3.8,0.5C2,0.5,0.5,2,0.5,3.8c0,0.9,0.4,1.7,1,2.3L7.4,12l-5.9,5.9c-1.3,1.3-1.3,3.3-0.1,4.6s3.3,1.3,4.6,0.1
	c0,0,0.1-0.1,0.1-0.1l5.9-5.9l5.9,5.9c1.3,1.3,3.3,1.3,4.6,0.1c1.3-1.3,1.3-3.3,0.1-4.6c0,0-0.1-0.1-0.1-0.1L16.6,12l5.9-5.9
	c1.3-1.3,1.3-3.3,0.1-4.6c-0.6-0.7-1.5-1-2.4-1c-0.9,0-1.7,0.4-2.3,1L12,7.4L6.1,1.5C5.5,0.9,4.7,0.5,3.8,0.5z"/>
</svg>
