<?xml version="1.0" encoding="utf-8"?>
<!-- Generator: Adobe Illustrator 25.0.0, SVG Export Plug-In . SVG Version: 6.00 Build 0)  -->
<svg version="1.1" id="Layer_1" xmlns="http://www.w3.org/2000/svg" xmlns:xlink="http://www.w3.org/1999/xlink" x="0px" y="0px"
	 viewBox="0 0 61 60" style="enable-background:new 0 0 61 60;" xml:space="preserve">
<style type="text/css">
	.st0{fill:#65788F;}
	.st1{fill:#4F5D75;}
</style>
<g>
	<path class="st0" d="M14.5,13.1l5.6,24.4H52l5.6-24.4H14.5z"/>
	<path class="st1" d="M33.3,54.4c0,2.1-1.7,3.8-3.8,3.8s-3.8-1.7-3.8-3.8s1.7-3.8,3.8-3.8S33.3,52.3,33.3,54.4L33.3,54.4z"/>
	<path class="st1" d="M50.2,54.4c0,2.1-1.7,3.8-3.8,3.8s-3.8-1.7-3.8-3.8s1.7-3.8,3.8-3.8S50.2,52.3,50.2,54.4L50.2,54.4z"/>
	<path d="M57.7,35.6h-3.2l5.1-22.1c0.2-0.6,0-1.1-0.4-1.5c-0.4-0.6-0.9-0.8-1.5-0.8H16l-2.2-9.8C13.6,0.6,12.8,0,11.9,0H1.4v3.8h9
		l7.9,34.1c0.2,0.9,0.9,1.5,1.9,1.5h33.8l-2.8,3.8H20.2v3.8H52c0.6,0,1.1-0.2,1.5-0.8l5.6-7.5c0.4-0.6,0.6-1.3,0.2-1.9
		C59,36,58.4,35.6,57.7,35.6L57.7,35.6z M50.5,35.6H21.7L17,15h38.4L50.5,35.6z M29.5,48.8c-3.2,0-5.6,2.4-5.6,5.6s2.4,5.6,5.6,5.6
		s5.6-2.4,5.6-5.6S32.7,48.8,29.5,48.8L29.5,48.8z M29.5,56.2c-1.1,0-1.9-0.8-1.9-1.9s0.7-1.9,1.9-1.9c1.1,0,1.9,0.8,1.9,1.9
		S30.7,56.2,29.5,56.2L29.5,56.2z M46.4,48.8c-3.2,0-5.6,2.4-5.6,5.6s2.4,5.6,5.6,5.6s5.6-2.4,5.6-5.6S49.6,48.8,46.4,48.8
		L46.4,48.8z M46.4,56.2c-1.1,0-1.9-0.8-1.9-1.9s0.8-1.9,1.9-1.9s1.9,0.8,1.9,1.9S47.5,56.2,46.4,56.2L46.4,56.2z"/>
</g>
</svg>
