<?xml version="1.0" encoding="utf-8"?>
<!-- Generator: Adobe Illustrator 25.0.0, SVG Export Plug-In . SVG Version: 6.00 Build 0)  -->
<svg version="1.1" id="Layer_1" xmlns="http://www.w3.org/2000/svg" xmlns:xlink="http://www.w3.org/1999/xlink" x="0px" y="0px"
	 viewBox="0 0 24 24" style="enable-background:new 0 0 24 24;" xml:space="preserve">
<path d="M9.7,0.5L8.6,1.6H4c-0.7,0-1.2,0.5-1.2,1.1S3.3,4,4,4h2.3h11.5H20c0.7,0,1.2-0.5,1.2-1.2S20.7,1.6,20,1.6h-4.6l-1.1-1.1H9.7
	z M4,6.2v15c0,1.3,1,2.3,2.3,2.3h11.5c1.3,0,2.3-1,2.3-2.3v-15H4z M8.6,8.6c0.7,0,1.1,0.5,1.1,1.1V20c0,0.7-0.5,1.2-1.1,1.2
	S7.4,20.7,7.4,20V9.7C7.4,9,7.9,8.6,8.6,8.6z M15.4,8.6c0.7,0,1.2,0.5,1.2,1.1V20c0,0.7-0.5,1.2-1.2,1.2c-0.7,0-1.1-0.5-1.1-1.2V9.7
	C14.3,9,14.8,8.6,15.4,8.6z"/>
</svg>
