<?xml version="1.0" encoding="utf-8"?>
<!-- Generator: Adobe Illustrator 25.0.0, SVG Export Plug-In . SVG Version: 6.00 Build 0)  -->
<svg version="1.1" id="Layer_1" xmlns="http://www.w3.org/2000/svg" xmlns:xlink="http://www.w3.org/1999/xlink" x="0px" y="0px"
	 viewBox="0 0 24 24" style="enable-background:new 0 0 24 24;" xml:space="preserve">
<path d="M9.7,0.5L8.6,1.6H4c-0.6,0-1.2,0.5-1.2,1.1S3.3,4,4,4H20c0.6,0,1.2-0.5,1.2-1.2S20.7,1.6,20,1.6h-4.6l-1.1-1.1H9.7z M4,6.2
	v15c0,1.3,1,2.3,2.3,2.3h11.5c1.3,0,2.3-1,2.3-2.3v-15H4z M9,10.2c0.3,0,0.6,0.1,0.8,0.3l2.2,2.2l2.2-2.2c0.4-0.4,1.2-0.4,1.6,0
	c0.4,0.4,0.4,1.2,0,1.6l-2.2,2.2l2.2,2.2c0.4,0.4,0.4,1.2,0,1.6c-0.4,0.4-1.2,0.4-1.6,0L12,15.9l-2.2,2.2c-0.4,0.4-1.2,0.4-1.6,0
	c-0.4-0.4-0.4-1.2,0-1.6l2.2-2.2l-2.2-2.2c-0.4-0.4-0.4-1.2,0-1.6C8.4,10.3,8.7,10.2,9,10.2z"/>
</svg>
