<?xml version="1.0" encoding="utf-8"?>
<!-- Generator: Adobe Illustrator 25.0.0, SVG Export Plug-In . SVG Version: 6.00 Build 0)  -->
<svg version="1.1" id="Layer_1" xmlns="http://www.w3.org/2000/svg" xmlns:xlink="http://www.w3.org/1999/xlink" x="0px" y="0px"
	 viewBox="0 0 61 60" style="enable-background:new 0 0 61 60;" xml:space="preserve">
<style type="text/css">
	.st0{fill:#7CB2F8;}
	.st1{fill:#65788F;}
	.st2{fill:#4F5D75;}
	.st3{clip-path:url(#SVGID_2_);}
</style>
<g>
	<path class="st0" d="M59,24c0,12.7-10.3,23-23,23c-12.7,0-23-10.3-23-23C13,11.3,23.3,1,36,1C48.7,1,59,11.3,59,24L59,24z M59,24"
		/>
	<path class="st1" d="M12,35l3,13h17l3-13H12z M12,35"/>
	<path class="st2" d="M22,57c0,1.1-0.9,2-2,2c-1.1,0-2-0.9-2-2c0-1.1,0.9-2,2-2C21.1,55,22,55.9,22,57L22,57z M22,57"/>
	<path class="st2" d="M31,57c0,1.1-0.9,2-2,2c-1.1,0-2-0.9-2-2c0-1.1,0.9-2,2-2C30.1,55,31,55.9,31,57L31,57z M31,57"/>
	<rect x="6" y="42" width="5" height="2"/>
	<rect y="46" width="9" height="2"/>
	<rect x="5" y="50" width="7" height="2"/>
	<rect x="2" y="42" width="2" height="2"/>
	<g>
		<defs>
			<rect id="SVGID_1_" width="61" height="60"/>
		</defs>
		<clipPath id="SVGID_2_">
			<use xlink:href="#SVGID_1_"  style="overflow:visible;"/>
		</clipPath>
		<path class="st3" d="M35,47h-1.7L36,35.2c0.1-0.3,0-0.6-0.2-0.8C35.6,34.1,35.3,34,35,34H12.8l-1.2-5.2c-0.1-0.5-0.5-0.8-1-0.8H5
			v2h4.8L14,48.2c0.1,0.5,0.5,0.8,1,0.8h18l-1.5,2H15v2h17c0.3,0,0.6-0.1,0.8-0.4l3-4c0.2-0.3,0.3-0.7,0.1-1
			C35.7,47.2,35.4,47,35,47L35,47z M31.2,47H15.8l-2.5-11h20.5L31.2,47z M20,54c-1.7,0-3,1.3-3,3c0,1.7,1.3,3,3,3s3-1.3,3-3
			C23,55.3,21.7,54,20,54L20,54z M20,58c-0.6,0-1-0.4-1-1c0-0.6,0.4-1,1-1c0.6,0,1,0.4,1,1C21,57.6,20.6,58,20,58L20,58z M29,54
			c-1.7,0-3,1.3-3,3c0,1.7,1.3,3,3,3s3-1.3,3-3C32,55.3,30.7,54,29,54L29,54z M29,58c-0.6,0-1-0.4-1-1c0-0.6,0.4-1,1-1
			c0.6,0,1,0.4,1,1C30,57.6,29.6,58,29,58L29,58z M29,58"/>
		<path class="st3" d="M36,0C22.8,0,12,10.8,12,24c0,0.7,0,1.4,0.1,2.1l2-0.2c0-0.3,0-0.6,0-0.9h9c0,2.4,0.3,4.8,0.7,7.2l2-0.4
			c-0.4-2.2-0.7-4.5-0.7-6.8h10v7h2v-7h10c-0.1,2.6-0.4,5.2-0.9,7.7c-2.3-0.4-4.7-0.6-7-0.7l-0.1,2c2.2,0.1,4.4,0.3,6.6,0.6
			c-0.6,2.4-1.6,4.6-2.9,6.7C40.8,41.2,38.9,41,37,41l0,2c2,0,4,0.2,6,0.4c0.8,0.1,1.6,0.2,2.4,0.4c-2.4,1.1-4.9,1.8-7.5,2.1l0.2,2
			C50.9,46.8,60.6,35.8,60,23C59.5,10.1,48.9,0,36,0L36,0z M23,23h-9c0.2-3.5,1.2-7,3-10c2.3,0.9,4.6,1.5,7,2
			C23.4,17.6,23.1,20.3,23,23L23,23z M24.4,13c-2.2-0.4-4.3-1-6.3-1.7c1.6-2.2,3.6-4.1,5.9-5.6c1,0.3,2.1,0.5,3.2,0.7
			C26,8.4,25.1,10.7,24.4,13L24.4,13z M35,23H25c0.1-2.6,0.4-5.2,0.9-7.7c3,0.4,6,0.7,9.1,0.7V23z M35,14c-2.9,0-5.7-0.3-8.6-0.7
			c0.6-2.4,1.6-4.6,2.9-6.7C31.2,6.8,33.1,7,35,7V14z M35.9,5c-1.1,0-2.3,0-3.4-0.1l-0.2,0C31.1,4.8,30,4.7,29,4.6
			c-0.8-0.1-1.7-0.3-2.4-0.4c6-2.9,13-2.9,19,0c-0.8,0.2-1.6,0.3-2.4,0.4C40.7,4.9,38.3,5,35.9,5L35.9,5z M45.6,13.3
			c-2.8,0.4-5.7,0.6-8.6,0.7V7c1.9,0,3.8-0.2,5.7-0.4C44,8.7,45,10.9,45.6,13.3L45.6,13.3z M37,23v-7c3,0,6.1-0.3,9.1-0.7
			c0.6,2.5,0.9,5.1,0.9,7.7H37z M48,42.4c-1-0.3-2.1-0.5-3.2-0.7c1.2-2.1,2.1-4.3,2.8-6.7c2.1,0.4,4.2,1,6.3,1.7
			C52.3,39,50.3,40.9,48,42.4L48,42.4z M55,35c-2.2-0.9-4.6-1.5-6.9-2c0.6-2.7,0.9-5.4,0.9-8.1h9C57.8,28.5,56.8,32,55,35L55,35z
			 M58,23h-9c-0.1-2.7-0.4-5.4-0.9-8.1c2.4-0.4,4.7-1.1,7-2C56.8,16,57.8,19.5,58,23L58,23z M47.6,13c-0.6-2.3-1.6-4.6-2.7-6.7
			C46,6.1,47,5.9,48.1,5.6c2.3,1.5,4.3,3.4,5.9,5.6C51.9,12,49.7,12.6,47.6,13L47.6,13z M47.6,13"/>
	</g>
</g>
</svg>
