<?xml version="1.0" encoding="utf-8"?>
<!-- Generator: Adobe Illustrator 25.0.0, SVG Export Plug-In . SVG Version: 6.00 Build 0)  -->
<svg version="1.1" id="Layer_1" xmlns="http://www.w3.org/2000/svg" xmlns:xlink="http://www.w3.org/1999/xlink" x="0px" y="0px"
	 viewBox="0 0 24 24" style="enable-background:new 0 0 24 24;" xml:space="preserve">
<style type="text/css">
	.st0{fill:#FFFFFF;}
</style>
<circle cx="12" cy="12" r="12"/>
<circle class="st0" cx="12" cy="12" r="10.1"/>
<path d="M7.7,6C6.8,6,6,6.8,6,7.7c0,0.5,0.2,0.9,0.5,1.2L9.6,12l-3.1,3.1c-0.7,0.7-0.7,1.7-0.1,2.4s1.7,0.7,2.4,0.1l0.1-0.1l3.1-3.1
	l3.1,3.1c0.7,0.7,1.7,0.7,2.4,0.1c0.7-0.7,0.7-1.7,0.1-2.4l-0.1-0.1L14.4,12l3.1-3.1c0.7-0.7,0.7-1.7,0.1-2.4
	C17.3,6.1,16.8,6,16.3,6s-0.9,0.2-1.2,0.5L12,9.6L8.9,6.5C8.6,6.2,8.2,6,7.7,6z"/>
</svg>
